# xmcd
#
# Track frame offsets: 
#        150
#        21643
#        37755
#        49209
#        66989
#        90650
#        103702
#        126802
#        141145
#        160633
#
# Disc length: 2530 seconds
#
# Revision: 0
# Processed by: cddbd v1.4PL0 Copyright (c) Steve Scherf et al.
# Submitted via: ExactAudioCopy v0.90b4
#
DISCID=8409e00a
DTITLE=Justin Hayward - Songwriter
DYEAR=1977
DGENRE=Blues
TTITLE0=Tightrope
TTITLE1=Songwriter I
TTITLE2=Songwriter II
TTITLE3=Country Girl
TTITLE4=One Lonely Room
TTITLE5=Lay It On Me
TTITLE6=Stage Door
TTITLE7=Raised On Love
TTITLE8=Doin' Time
TTITLE9=Nostradamus
EXTD=
EXTT0=
EXTT1=
EXTT2=
EXTT3=
EXTT4=
EXTT5=
EXTT6=
EXTT7=
EXTT8=
EXTT9=
PLAYORDER=
